# xmcd
#
# Track frame offsets:
#	150
#	14908
#	29183
#	41797
#	55093
#	68893
#	83186
#	94448
#	108498
#	124283
#	138178
#	152741
#	165491
#	178093
#	191451
#	207876
#	219293
#	231676
#	246261
#
# Disc length: 3466 seconds
#
# Revision: 0
# Processed by: cddbd v1.4PL0 Copyright (c) Steve Scherf et al.
# Submitted via: dBpowerAMP V4.0
#
DISCID=1f0d8813
DTITLE=ruby winters- - ruby winters-
DYEAR=1900
DGENRE=Cabaret
TTITLE0=ruby winters-a last minute miracle
TTITLE1=ruby winters-just a dream
TTITLE2=ruby winters-just like yo yo
TTITLE3=ruby winters-try me
TTITLE4=ruby winters-i can't help but love you
TTITLE5=ruby winters-guess who
TTITLE6=ruby winters-sweetheart things
TTITLE7=ruby winters-someone out there for me
TTITLE8=ruby winters-i don;t wanna cry
TTITLE9=ruby winters-there goe's my everything
TTITLE10=ruby winters-the bell's of st' mary
TTITLE11=ruby winters-pledging my love
TTITLE12=ruby winters-we're living to give
TTITLE13=ruby winters-it's not easy
TTITLE14=ruby winters-if only we had met sooner
TTITLE15=ruby winters-is it love
TTITLE16=ruby winters-i was born to love you
TTITLE17=ruby winters-always david
TTITLE18=ruby winters-i don't want to hurt nobody
EXTD=
EXTT0=
EXTT1=
EXTT2=
EXTT3=
EXTT4=
EXTT5=
EXTT6=
EXTT7=
EXTT8=
EXTT9=
EXTT10=
EXTT11=
EXTT12=
EXTT13=
EXTT14=
EXTT15=
EXTT16=
EXTT17=
EXTT18=
PLAYORDER=
